<svg width="142" height="46" viewBox="0 0 142 46" fill="none" xmlns="http://www.w3.org/2000/svg">
<rect x="0.130005" y="0.0499878" width="141.23" height="45.78" rx="22.89" fill="#FFBD2F"/>
<path d="M25.1035 28V26.8037L25.8145 26.7012L28.9795 18.0469H31.0234L34.168 26.7012L34.8789 26.8037V28H31.4883V26.8037L32.1787 26.6807L31.7412 25.3135H28.2412L27.8037 26.6807L28.4941 26.8037V28H25.1035ZM28.7129 23.8438H31.2695L30.1074 20.4326L30.0117 20.1318H29.9707L29.8682 20.4531L28.7129 23.8438ZM40.0537 28.1436C39.2653 28.1436 38.5703 28.0068 37.9688 27.7334C37.3717 27.46 36.9069 27.0635 36.5742 26.5439C36.2415 26.0244 36.0752 25.3932 36.0752 24.6504V19.4551L35.0156 19.25V18.0469H39.1377V19.25L38.0713 19.4551V24.6504C38.0713 25.0879 38.151 25.4525 38.3105 25.7441C38.4701 26.0358 38.6979 26.2546 38.9941 26.4004C39.2904 26.5417 39.6436 26.6123 40.0537 26.6123C40.473 26.6123 40.8307 26.5417 41.127 26.4004C41.4277 26.2546 41.6579 26.0358 41.8174 25.7441C41.9769 25.4525 42.0566 25.0879 42.0566 24.6504V19.4551L40.9971 19.25V18.0469H45.1191V19.25L44.0527 19.4551V24.6504C44.0527 25.3932 43.8841 26.0267 43.5469 26.5508C43.2142 27.0703 42.7471 27.4668 42.1455 27.7402C41.5485 28.0091 40.8512 28.1436 40.0537 28.1436ZM49.8291 28.1436C49.0954 28.1436 48.4277 28.0615 47.8262 27.8975C47.2246 27.7334 46.6322 27.4486 46.0488 27.043V24.6367H47.5938L47.8057 26.0518C48.0107 26.2249 48.2933 26.3662 48.6533 26.4756C49.0133 26.5804 49.4053 26.6328 49.8291 26.6328C50.1891 26.6328 50.4922 26.5827 50.7383 26.4824C50.9889 26.3822 51.1781 26.2409 51.3057 26.0586C51.4378 25.8717 51.5039 25.653 51.5039 25.4023C51.5039 25.1654 51.4447 24.9557 51.3262 24.7734C51.2122 24.5866 51.0208 24.418 50.752 24.2676C50.4876 24.1126 50.1276 23.9645 49.6719 23.8232C48.8835 23.5908 48.2295 23.3379 47.71 23.0645C47.195 22.7865 46.8076 22.4561 46.5479 22.0732C46.2926 21.6859 46.165 21.221 46.165 20.6787C46.165 20.141 46.3132 19.667 46.6094 19.2568C46.9102 18.8421 47.3249 18.5163 47.8535 18.2793C48.3822 18.0423 48.9928 17.9193 49.6855 17.9102C50.4512 17.901 51.1279 17.9922 51.7158 18.1836C52.3083 18.375 52.8187 18.6416 53.2471 18.9834V21.2256H51.75L51.4902 19.8584C51.3171 19.749 51.0824 19.6533 50.7861 19.5713C50.4945 19.4893 50.1618 19.4482 49.7881 19.4482C49.4691 19.4482 49.1865 19.4961 48.9404 19.5918C48.6989 19.6875 48.5075 19.8265 48.3662 20.0088C48.2249 20.1911 48.1543 20.4121 48.1543 20.6719C48.1543 20.8952 48.2158 21.0911 48.3389 21.2598C48.4619 21.4238 48.667 21.5811 48.9541 21.7314C49.2458 21.8773 49.6468 22.0345 50.1572 22.2031C51.2555 22.5085 52.0872 22.9118 52.6523 23.4131C53.222 23.9144 53.5068 24.5729 53.5068 25.3887C53.5068 25.9538 53.3542 26.4437 53.0488 26.8584C52.7435 27.2686 52.3151 27.5853 51.7637 27.8086C51.2122 28.0319 50.5674 28.1436 49.8291 28.1436ZM57.4785 28L55.168 19.3525L54.1494 19.25V18.0469H58.1553V19.25L57.082 19.4072L58.251 24.2471L58.4629 25.1357H58.5039L58.7568 24.2471L60.7256 18.0469H62.1953L64.2393 24.418L64.4785 25.2041H64.5195L64.7246 24.418L65.9346 19.4072L64.7998 19.25V18.0469H68.7305V19.25L67.7803 19.3525L65.4424 28H63.6377L61.751 22.1826L61.5117 21.3623H61.4707L61.2041 22.21L59.2969 28H57.4785ZM68.0742 28V26.8037L68.7852 26.7012L71.9502 18.0469H73.9941L77.1387 26.7012L77.8496 26.8037V28H74.459V26.8037L75.1494 26.6807L74.7119 25.3135H71.2119L70.7744 26.6807L71.4648 26.8037V28H68.0742ZM71.6836 23.8438H74.2402L73.0781 20.4326L72.9824 20.1318H72.9414L72.8389 20.4531L71.6836 23.8438ZM73.5498 17.1104V15.4082H75.4707V17.1104H73.5498ZM70.4668 17.1104V15.4082H72.3877V17.1104H70.4668ZM78.5127 28V26.8037L79.5723 26.5986V19.4551L78.5127 19.25V18.0469H82.6348V19.25L81.5684 19.4551V22.3262H85.6289V19.4551L84.5625 19.25V18.0469H85.6289H87.6182H88.6846V19.25L87.6182 19.4551V26.5986L88.6846 26.8037V28H84.5625V26.8037L85.6289 26.5986V23.8643H81.5684V26.5986L82.6348 26.8037V28H78.5127ZM89.4502 28V26.8037L90.5098 26.5986V19.4551L89.4502 19.25V18.0469H90.5098H92.5059H93.709V19.25L92.5059 19.4551V26.4688H95.3154L95.4111 25.0127H96.9355V28H89.4502ZM97.6533 28V26.8037L98.7129 26.5986V19.4551L97.6533 19.25V18.0469H105.378V20.7334H103.847L103.758 19.585H100.709V22.0869H104.079V23.625H100.709V26.4688H103.922L104.011 25.2793H105.528V28H97.6533ZM106.595 28V26.8037L107.654 26.5986V19.4551L106.595 19.25V18.0469H107.654H109.678L114.012 24.9512L114.053 24.9443V19.4551L112.781 19.25V18.0469H115.837H116.903V19.25L115.837 19.4551V28H113.909L109.479 21.1641L109.438 21.1709V26.5986L110.717 26.8037V28H106.595Z" fill="white"/>
</svg>
